<?xml version="1.0" encoding="UTF-8"?>
<svg xmlns="http://www.w3.org/2000/svg" xmlns:xlink="http://www.w3.org/1999/xlink" width="800pt" height="800pt" viewBox="0 0 800 800" version="1.1">
<g id="surface1">
<rect x="0" y="0" width="800" height="800" style="fill:rgb(100%,100%,100%);fill-opacity:1;stroke:none;"/>
<path style=" stroke:none;fill-rule:nonzero;fill:rgb(0%,55.299377%,100%);fill-opacity:1;" d="M 81.445313 534.3125 L 196.964844 534.3125 C 196.964844 534.3125 219.605469 534.890625 216.703125 562.175781 L 131.367188 648.089844 L 195.804688 648.089844 C 195.804688 648.089844 227.152344 644.609375 224.25 677.117188 L 113.371094 677.117188 C 113.371094 677.117188 89.570313 678.273438 88.992188 648.089844 L 174.90625 562.757813 L 110.46875 562.757813 C 110.46875 562.757813 77.960938 562.753906 81.445313 534.3125 "/>
<path style=" stroke:none;fill-rule:nonzero;fill:rgb(0%,55.299377%,100%);fill-opacity:1;" d="M 577.929688 301.609375 C 577.929688 202.578125 497.652344 122.296875 398.621094 122.296875 C 299.59375 122.296875 219.3125 202.578125 219.3125 301.609375 C 219.3125 400.632813 299.59375 480.910156 398.621094 480.910156 C 497.652344 480.910156 577.929688 400.632813 577.929688 301.609375 "/>
<path style=" stroke:none;fill-rule:nonzero;fill:rgb(0%,55.299377%,100%);fill-opacity:1;" d="M 360.820313 605.71875 C 360.820313 565.957031 328.589844 533.730469 288.832031 533.730469 C 249.074219 533.730469 216.847656 565.957031 216.847656 605.71875 C 216.847656 645.476563 249.074219 677.703125 288.832031 677.703125 C 328.589844 677.703125 360.820313 645.476563 360.820313 605.71875 M 288.832031 649.257813 C 264.785156 649.257813 245.289063 629.765625 245.289063 605.71875 C 245.289063 581.667969 264.785156 562.175781 288.832031 562.175781 C 312.878906 562.175781 332.375 581.667969 332.375 605.71875 C 332.375 629.765625 312.878906 649.257813 288.832031 649.257813 "/>
<path style=" stroke:none;fill-rule:nonzero;fill:rgb(0%,55.299377%,100%);fill-opacity:1;" d="M 511.761719 605.71875 C 511.761719 565.957031 479.535156 533.730469 439.777344 533.730469 C 400.023438 533.730469 367.792969 565.957031 367.792969 605.71875 C 367.792969 645.476563 400.023438 677.703125 439.777344 677.703125 C 479.535156 677.703125 511.761719 645.476563 511.761719 605.71875 M 439.777344 649.257813 C 415.730469 649.257813 396.238281 629.765625 396.238281 605.71875 C 396.238281 581.667969 415.730469 562.175781 439.777344 562.175781 C 463.824219 562.175781 483.320313 581.667969 483.320313 605.71875 C 483.320313 629.765625 463.824219 649.257813 439.777344 649.257813 "/>
<path style=" stroke:none;fill-rule:nonzero;fill:rgb(0%,55.299377%,100%);fill-opacity:1;" d="M 518.5625 533.730469 L 518.5625 677.121094 C 518.5625 677.121094 545.851563 682.339844 547.007813 653.316406 L 547.007813 591.78125 C 547.007813 591.78125 548.171875 562.753906 576.617188 562.175781 C 576.617188 562.175781 603.898438 563.335938 605.058594 590.621094 L 605.058594 653.898438 C 605.058594 653.898438 606.800781 679.449219 634.664063 677.121094 L 634.664063 591.203125 C 634.664063 591.203125 635.246094 560.433594 664.269531 562.175781 C 664.269531 562.175781 688.652344 563.914063 690.394531 586.558594 L 690.394531 646.351563 C 690.394531 646.351563 688.074219 680.609375 720 677.121094 L 720 588.878906 C 720 588.878906 718.257813 539.53125 667.175781 533.730469 C 667.175781 533.730469 634.664063 532.570313 619.28125 553.46875 C 619.28125 553.46875 585.25 514.910156 544.6875 544.179688 C 544.6875 544.179688 535.398438 534.890625 518.5625 533.730469 "/>
<path style=" stroke:none;fill-rule:nonzero;fill:rgb(100%,100%,100%);fill-opacity:1;" d="M 282.664063 236.292969 L 414.730469 236.292969 C 414.730469 236.292969 446.9375 239.515625 448.011719 265.28125 L 448.011719 365.132813 L 320.246094 365.132813 C 320.246094 365.132813 283.738281 369.429688 282.664063 331.851563 "/>
<path style=" stroke:none;fill-rule:nonzero;fill:rgb(100%,100%,100%);fill-opacity:1;" d="M 512.433594 236.292969 L 512.433594 365.285156 L 455.527344 327.554688 L 455.527344 274.945313 Z M 512.433594 236.292969 "/>
</g>
</svg>
